<svg xmlns="http://www.w3.org/2000/svg" viewBox="0 0 100 100"><defs><style>.cls-3{fill:#ffa68f}.cls-4{fill:#4949e7}.cls-5{fill:#8080f1}.cls-6{fill:#2d2db0}.cls-7{fill:#202095}</style></defs><g id="seleccionados_expandidos" data-name="seleccionados expandidos"><path d="M76.66 0a40.17 40.17 0 0 1-.29 4.15c-.23 2.42-.53 5.6-.68 8.94 3.61.69 5.59 1.87 6.66 2.88l1.94-.23a2 2 0 0 1 2.24 1.94 2.1 2.1 0 0 1-1.9 2.05L82.1 20a2.54 2.54 0 0 1-2.31-1c-.06-.07-1-1.18-4.19-1.91v2.47c.09 2.13.57 5.69 1.13 9.81.2 1.49.41 3 .62 4.64C80.59 29.47 80 23 80 22.9a1.5 1.5 0 0 1 3-.25c0 .38.75 8.73-4 14.29A12.19 12.19 0 0 1 77.88 38c1.27 10.67 2 22.33-.87 28.57C72.31 76.73 63.3 82.9 51.64 84h-.33a125.28 125.28 0 0 0-.31 16h49V0z" fill="#ff8578"/><path d="M51.31 84c-1.19.1-2.43.15-3.71.15-10.88 0-24.21-3.25-24.85-3.41a1.5 1.5 0 1 1 .72-2.91c.17 0 17.1 4.17 27.89 3.16 10.55-1 18.69-6.55 22.93-15.66 1.4-3 1.81-7.78 1.7-13.12h-.56c-4.64 0-8.4-2.82-8.4-6.3a5.81 5.81 0 0 1 3-4.8h-1.37c-14.16 0-15.87-13.44-15.88-13.58a1.5 1.5 0 0 1 3-.35C55.76 27.75 57.26 39 70 38.15a9.91 9.91 0 0 0 4.74-1.44c-.3-2.42-.61-4.75-.9-6.87-.57-4.2-1.06-7.82-1.15-10.09v-3.07a39.08 39.08 0 0 0-3.94-.19 13.93 13.93 0 0 0-12.74 7.43 2.88 2.88 0 0 1-3.53 1.36 7.11 7.11 0 0 0-2.16-.45 9.88 9.88 0 0 0-3.06.57v.07c0 .07-1 16.58-16.87 17.34h-1.07c-14.57 0-17.07-14.92-17.09-15.07a1.5 1.5 0 0 1 3-.46c.09.57 2.26 13.12 15.05 12.51 5.51-.27 9.53-2.76 12-7.42a19.36 19.36 0 0 0 2.06-7.08 1.5 1.5 0 0 1 .12-.5l-.08-.14c-.15-.27-4.07-6.94-15-6.94-10 0-14.59 5.17-15.4 6.21a2.76 2.76 0 0 1-2.22 1H8a2.07 2.07 0 0 1-2-1.37A2 2 0 0 1 7.9 21H11c1.89-2.21 7.44-7.29 18.17-7.29 10.25 0 15.53 5.06 17.54 7.61a12.1 12.1 0 0 1 3.61-.5 10.82 10.82 0 0 1 2.45.39 18.06 18.06 0 0 1 15.8-8.72c1.49 0 2.83.06 4 .17.16-3.31.45-6.42.67-8.81.16-1.7.31-3.3.28-3.77v-.1H0V100h51a125.28 125.28 0 0 1 .31-16zm10.34-60.28c1.07 0 1.94 1.24 1.94 2.76s-.87 2.76-1.94 2.76-1.93-1.24-1.93-2.76.86-2.76 1.93-2.76zm-8.39 26.19a1.49 1.49 0 0 1 2-.51c1.6.81 3.71 1.39 5.18.09.95-.84 1.26-3.65-1.11-4.29A5.07 5.07 0 0 1 57 43.75a8.52 8.52 0 0 1-2.23-4.24 1.5 1.5 0 0 1 3-.46 5.81 5.81 0 0 0 1.46 2.65 4.39 4.39 0 0 0 1.35.72 9.53 9.53 0 0 1 3.11 1.93c1.07 1 1.06 4.41-.5 6.48a5.78 5.78 0 0 1-4.72 2.33 10 10 0 0 1-4.49-1.24 1.5 1.5 0 0 1-.72-2.01zm-10.12 9a1.5 1.5 0 0 1 2 .5A4.47 4.47 0 0 0 49.28 61c2.94-.17 4-1.88 4-2a1.51 1.51 0 0 1 2-.58 1.49 1.49 0 0 1 .61 2c-.07.13-1.78 3.26-6.47 3.52h-.56a7.28 7.28 0 0 1-6.27-3.1 1.5 1.5 0 0 1 .54-1.96zM25.83 26.37a2.26 2.26 0 0 1 2 2.43 2.26 2.26 0 0 1-2 2.43 2.26 2.26 0 0 1-2-2.43 2.26 2.26 0 0 1 2-2.43zM56 10c.13-.21 3.22-5.19 8.19-4.51a1.5 1.5 0 0 1-.4 3c-3-.41-5.2 3.07-5.22 3.1A1.5 1.5 0 0 1 56 10zm-35.95-.6c.21-.11 2.13-1.06 6.33-1.2a20 20 0 0 1 7.5 1.14 1.5 1.5 0 1 1-1.12 2.78 17.37 17.37 0 0 0-6.28-.92 13.88 13.88 0 0 0-5.06.87 1.51 1.51 0 0 1-2-.66 1.49 1.49 0 0 1 .63-2.01zm-5.7 43.26c-4.07-1-6.84-4-6.19-6.79s4.49-4.28 8.56-3.32 6.84 4 6.19 6.79-4.48 4.28-8.56 3.32z" fill="#d7d7ff"/><path class="cls-3" d="M70.15 41.14H70a5.81 5.81 0 0 0-3 4.8c0 3.48 3.76 6.3 8.4 6.3h.56c-.08-3.94-.45-8.19-.91-12.3a13.48 13.48 0 0 1-4.9 1.2z"/><path class="cls-4" d="M53.91 51.93a10 10 0 0 0 4.49 1.24 5.78 5.78 0 0 0 4.72-2.33c1.56-2.07 1.56-5.45.5-6.48a9.53 9.53 0 0 0-3.11-1.93 4.39 4.39 0 0 1-1.35-.72 5.81 5.81 0 0 1-1.46-2.65 1.5 1.5 0 0 0-3 .46 8.52 8.52 0 0 0 2.3 4.23 5.07 5.07 0 0 0 2.41 1.45c2.37.64 2.06 3.46 1.11 4.29-1.48 1.3-3.58.72-5.18-.09a1.45 1.45 0 1 0-1.39 2.53z"/><path class="cls-5" d="M48.89 64h.56c4.7-.27 6.4-3.39 6.47-3.52a1.49 1.49 0 0 0-.61-2 1.51 1.51 0 0 0-2 .58c0 .07-1.06 1.79-4 2a4.47 4.47 0 0 1-4.09-1.65 1.5 1.5 0 0 0-2.56 1.56A7.28 7.28 0 0 0 48.89 64z"/><ellipse class="cls-3" cx="15.54" cy="47.61" rx="5.19" ry="7.57" transform="rotate(-76.79 15.535 47.605)"/><ellipse class="cls-6" cx="25.83" cy="28.8" rx="2.05" ry="2.43"/><ellipse class="cls-6" cx="61.65" cy="26.48" rx="1.94" ry="2.76"/><path class="cls-7" d="M21.43 12.07a13.88 13.88 0 0 1 5.06-.87 17.37 17.37 0 0 1 6.28.92 1.5 1.5 0 0 0 1.12-2.78 20 20 0 0 0-7.5-1.14c-4.2.15-6.12 1.09-6.33 1.2a1.49 1.49 0 0 0-.63 2 1.51 1.51 0 0 0 2 .67zM56.47 12a1.5 1.5 0 0 0 2.06-.49s2.21-3.51 5.22-3.1a1.5 1.5 0 0 0 .4-3c-5-.68-8.06 4.3-8.19 4.51a1.5 1.5 0 0 0 .51 2.08z"/><path class="cls-4" d="M46.53 25.65a1.78 1.78 0 0 1-2.22-.79 1.5 1.5 0 0 0-.12.5 19.36 19.36 0 0 1-2.06 7.08c-2.43 4.66-6.45 7.16-12 7.42-12.79.6-15-11.95-15.05-12.51a1.5 1.5 0 0 0-3 .46c0 .15 2.52 15.07 17.09 15.07h1.07c15.83-.77 16.86-17.18 16.87-17.34s0 0 0-.07l-.46.16z"/><path class="cls-5" d="M75.07 39.92c.46 4.11.82 8.36.91 12.3.11 5.34-.29 10.1-1.7 13.12C70.05 74.45 61.91 80 51.36 81c-10.79 1-27.72-3.12-27.89-3.16a1.5 1.5 0 1 0-.72 2.91c.63.16 14 3.41 24.85 3.41 1.28 0 2.52-.05 3.71-.15h.33C63.3 82.9 72.31 76.73 77 66.61c2.9-6.24 2.14-17.89.87-28.57a11.53 11.53 0 0 1-2.8 1.88zM73.38 3.86c-.23 2.39-.52 5.5-.67 8.81 1.1.1 2.09.24 3 .41.15-3.35.45-6.52.68-8.94A40.17 40.17 0 0 0 76.66 0h-3v.1c.03.46-.12 2.07-.28 3.76zM72.6 16.69v3.07c.09 2.27.58 5.9 1.15 10.09.29 2.12.6 4.44.9 6.87a8.84 8.84 0 0 0 2-1.73 10.88 10.88 0 0 0 .69-.9c-.21-1.6-.42-3.15-.62-4.64-.56-4.12-1-7.68-1.13-9.81v-2.47a24.37 24.37 0 0 0-2.99-.48z"/><path class="cls-4" d="M74.7 36.71a9.91 9.91 0 0 1-4.7 1.44c-12.7.83-14.2-10.4-14.25-10.88a1.5 1.5 0 0 0-3 .35c0 .14 1.72 13.58 15.88 13.58h1.54a13.48 13.48 0 0 0 4.92-1.22A11.53 11.53 0 0 0 77.88 38 12.19 12.19 0 0 0 79 36.94c4.75-5.56 4-13.94 4-14.29a1.5 1.5 0 0 0-3 .25c0 .08.58 6.57-2.62 11.18a10.88 10.88 0 0 1-.69.9 8.84 8.84 0 0 1-1.99 1.73z"/><path d="M72.71 12.68c-1.21-.11-2.55-.17-4-.17a18.06 18.06 0 0 0-15.8 8.72 10.83 10.83 0 0 0-2.45-.39 12.1 12.1 0 0 0-3.61.51c-2-2.54-7.29-7.6-17.54-7.6-10.83 0-16.38 5.07-18.31 7.25H7.9A2 2 0 0 0 6 23.63 2.07 2.07 0 0 0 8 25h3.58a2.76 2.76 0 0 0 2.22-1c.81-1 5.37-6.22 15.4-6.22 10.94 0 14.86 6.68 15 7l.08.15a1.78 1.78 0 0 0 2.22.79l.18-.07.46-.16a9.88 9.88 0 0 1 3.06-.57 7.11 7.11 0 0 1 2.16.45 2.88 2.88 0 0 0 3.53-1.36 13.93 13.93 0 0 1 12.78-7.51 39.08 39.08 0 0 1 3.94.19 24.37 24.37 0 0 1 3 .47c3.22.74 4.13 1.84 4.19 1.91a2.54 2.54 0 0 0 2.31 1l2.55-.31a2.1 2.1 0 0 0 1.9-2.05 2 2 0 0 0-2.24-1.94l-1.95.23c-1.06-1-3-2.18-6.66-2.88-.91-.2-1.9-.34-3-.44z" fill="#3636cc"/></g></svg>