<svg xmlns="http://www.w3.org/2000/svg" viewBox="0 0 100 100"><defs><style>.cls-1{fill:none}.cls-5{fill:#3636cc}</style></defs><g id="seleccionados_expandidos" data-name="seleccionados expandidos"><path class="cls-1" d="M44.34 81.75l-.47-.19zM45.59 82.25L45 82zM46.89 82.74l-.69-.26zM48.26 83.24l-.82-.29zM43.14 81.25l-.34-.14zM24.44 29.08a7.24 7.24 0 0 1-.6-2.63 2.09 2.09 0 0 0-.45-.34 13.69 13.69 0 0 0-4.38-3 13.78 13.78 0 0 1 4.38 3 2.44 2.44 0 0 1 .37.32 7.47 7.47 0 0 0 .64 2.67 1.63 1.63 0 0 0 1.38.92 1.58 1.58 0 0 1-1.34-.94zM92.31 51.34c.23-2.92-5.75-6.36-6.08-15.45-.35-9.68.12-19.91-.58-26.44.7 6.53.23 16.84.58 26.52.33 9.03 6.25 12.46 6.08 15.37zM50 83.83l-1.29-.43zM12 22.53a12.81 12.81 0 0 1 5.36 1.24 1.49 1.49 0 0 0 .56.13 1.49 1.49 0 0 1-.56-.13A12.81 12.81 0 0 0 12 22.53zM50 83.83a4.74 4.74 0 0 0-.85.45 4.75 4.75 0 0 1 .85-.45zM48.14 85.2c-.11.13-.22.25-.33.38.11-.13.19-.25.33-.38zM47.54 86c-.09.14-.18.28-.27.43.09-.15.18-.28.27-.43zM48.43 84.86a5 5 0 0 1 .44-.36 5 5 0 0 0-.44.36zM47 86.92c-.08.16-.16.32-.24.49.1-.18.18-.33.24-.49zM46.09 89.07l-.25.66zM46.55 87.94l-.23.56zM42 80.77l-.19-.08zM32.67 22.46A11.08 11.08 0 0 0 31 28.95h.06a10.24 10.24 0 0 1 1.63-6.43 1.5 1.5 0 0 0-1.2-2.37 1.49 1.49 0 0 1 1.16 2.37zM40.44 18a1.54 1.54 0 0 1 .92.21l.15.09h.07l.12.1a1.5 1.5 0 0 1-.06 2.12c-3.14 3-8 8.55-8.6 11.61a3.05 3.05 0 0 0-.06.58 5.36 5.36 0 0 1-.07 1 2 2 0 0 1-1.27 1.68 1.84 1.84 0 0 1-.53.08 1.73 1.73 0 0 0 .53-.08 2 2 0 0 0 1.26-1.68 5.31 5.31 0 0 0 .07-1 3 3 0 0 1 .06-.58c.6-3.07 5.46-8.63 8.6-11.61a1.51 1.51 0 0 0 .05-2.13.92.92 0 0 0-.12-.09h-.07l-.14-.1a1.54 1.54 0 0 0-.91-.2zM67.24 16.52a1.55 1.55 0 0 1 .26-.86 1.52 1.52 0 0 0-.26.86zM28.1 27.09a17 17 0 0 1 .37-2.38 14.32 14.32 0 0 0-.37 2.38zM28 29.39a.11.11 0 0 1 0 .07v-.05zM27.13 29l.35.16-.34-.16z"/><path d="M82.56 0S85 2.92 85.65 9.45s.23 16.76.58 26.44c.33 9.08 6.31 12.52 6.08 15.45a2 2 0 0 1-.13.61c-.89 2.35-3.38 2.45-5.63 1.53-.39 13.64-8.09 23.67-14.07 27.82-6.63 4.59-20 3.8-22.48 2.53a4.75 4.75 0 0 0-.85.45c-.1.07-.19.15-.28.23a5 5 0 0 0-.44.36c-.1.1-.2.23-.29.34s-.22.25-.33.38-.18.28-.27.42-.18.28-.27.43-.17.32-.25.48-.16.32-.24.49-.15.35-.23.53l-.23.56-.22.58-.25.66-.37 1a69.5 69.5 0 0 0-2.26 9.26H100V0z" fill="#2bc48a"/><path d="M42.33 99.53c-4.25-3.67-12.43-25.47-11.58-24.7S36.2 78 40.94 80.3l.87.38.19.08.79.34.34.14.73.3.47.19.67.27.59.23.61.24.69.26.55.21.82.29.46.16 1.29.43c2.44 1.26 15.84 2.06 22.48-2.53 6-4.14 13.68-14.17 14.07-27.82 2.25.92 4.74.82 5.63-1.53a2 2 0 0 0 .13-.61c.16-2.9-5.76-6.33-6.09-15.33-.35-9.68.12-20-.58-26.52S82.56 0 82.56 0H59a.85.85 0 0 0 0 .16c0 .07 0 .08-.07.15a11 11 0 0 1-2 3.3 1.48 1.48 0 0 1-.23.61 35.1 35.1 0 0 1-12.17 10.6l-3.15 3.35.14.1h.07a.92.92 0 0 1 .12.09 1.51 1.51 0 0 1-.05 2.13c-3.14 3-8 8.55-8.6 11.61a3 3 0 0 0-.06.58 5.31 5.31 0 0 1-.07 1 2 2 0 0 1-1.26 1.68 1.73 1.73 0 0 1-.53.08 2 2 0 0 1-1.6-.88 9.17 9.17 0 0 1-1.5-5.1.11.11 0 0 0 0-.07l-.48-.25-.43-.14a1.66 1.66 0 0 1-.69.79 1.64 1.64 0 0 1-.66.23 1.57 1.57 0 0 1-1.34-.92 7.24 7.24 0 0 1-.6-2.63 3.4 3.4 0 0 1-.29-.34 20.91 20.91 0 0 0-4.21-3 1.49 1.49 0 0 1-2 .69A12.81 12.81 0 0 0 12 22.53 9.77 9.77 0 0 0 9 23c-5.7 1.87-5 6.19-3.62 10.84l.11.39a24.81 24.81 0 0 0 2.82 5.54 27.88 27.88 0 0 0 2.14 2.88 18.87 18.87 0 0 0 1.64 1.7 9.42 9.42 0 0 0 3.62 2.19 4.88 4.88 0 0 0 4.87-1.39 1.5 1.5 0 0 1 2 2.21A8.23 8.23 0 0 1 17 49.73a7.74 7.74 0 0 1-2.12-.3A10.65 10.65 0 0 1 12 48C6.76 53 2.4 56.76.08 57.94L0 58v42h43.22a1.87 1.87 0 0 1-.89-.48z" fill="#c7ffc7"/><path d="M12 48c-5.13-3.4-8.73-10.83-9.34-13l-.11-.38c-1-3.47-3.35-11.6 5.57-14.52a14.22 14.22 0 0 1 10.49.9 1.5 1.5 0 0 1 .75 2v.06a21.15 21.15 0 0 1 4.22 3l.29.32a19.29 19.29 0 0 1 .49-5.17 1.5 1.5 0 1 1 2.92.7c-.31 1.31-.75 4.43-.11 5.74a1.49 1.49 0 0 1 0 1.28l.34.18.48.25c0-.74 0-1.52.1-2.32a14.32 14.32 0 0 1 .37-2.38 11.21 11.21 0 0 1 1.73-4 1.58 1.58 0 0 1 1.31-.63 1.5 1.5 0 0 1 1.2 2.37 10.24 10.24 0 0 0-1.63 6.43c2.37-4.66 7.74-9.8 8.5-10.53a1.44 1.44 0 0 1 .87-.39 1.54 1.54 0 0 1 .92.21l3.15-3.35a32 32 0 0 1-4.35 1.91A30.83 30.83 0 0 1 30 18.52a19.8 19.8 0 0 1-4.61-.46 1.5 1.5 0 0 1 .75-2.9c.06 0 5.57 1.36 13-1.25a32.44 32.44 0 0 0 15-11.32 1.5 1.5 0 0 1 2.74 1 11 11 0 0 0 2-3.3c0-.08.06-.08.07-.15A.85.85 0 0 1 59 0H0v58s0-.06.08-.09C2.4 56.76 6.76 53 12 48zm5.12-39.29c9.67.72 13.34-1.94 13.43-2a1.5 1.5 0 0 1 1.87 2.34c-.16.13-3.55 2.78-12.13 2.78-1.05 0-2.19 0-3.4-.13a1.5 1.5 0 1 1 .22-3z" fill="#5eb2fc"/><ellipse class="cls-5" cx="72.76" cy="27.74" rx="1.57" ry="2.97"/><path class="cls-5" d="M67.89 17.84a1.5 1.5 0 0 0 2.11-.39 10 10 0 0 1 7.43-4.25 1.61 1.61 0 0 0 0-3.2 13.28 13.28 0 0 0-9.84 5.65 1.55 1.55 0 0 0-.26.86 1.58 1.58 0 0 0 .56 1.33zM68.93 63.23a8 8 0 0 0 5.79.89 1.5 1.5 0 0 0-.76-2.9 5 5 0 0 1-3.47-.55 6 6 0 0 1-2.38-4.12 1.5 1.5 0 1 0-2.94.6 8.83 8.83 0 0 0 3.76 6.08zM56.25 2.15a1.5 1.5 0 0 0-2.08.43 32.44 32.44 0 0 1-15 11.32c-7.46 2.61-13 1.27-13 1.25a1.5 1.5 0 0 0-.75 2.9 19.8 19.8 0 0 0 4.61.46 30.83 30.83 0 0 0 10.16-1.79 32 32 0 0 0 4.35-1.91A35.1 35.1 0 0 0 56.69 4.22a1.51 1.51 0 0 0-.43-2.08zM16.9 11.7c1.21.09 2.35.13 3.4.13 8.58 0 12-2.66 12.13-2.78a1.5 1.5 0 0 0-1.87-2.34c-.09.07-3.77 2.72-13.43 2a1.5 1.5 0 1 0-.22 3z"/><path d="M8.22 25.58a1.5 1.5 0 0 0 .11 3 9.86 9.86 0 0 1 2.07.22 13 13 0 0 0-2.62 1.8 1.5 1.5 0 0 0 2 2.22c.76-.69 3.24-2.44 4.92-1.87a7.91 7.91 0 0 1 1.91 2.72 1.5 1.5 0 0 0 2.76-1.18c-3.04-7.14-10.83-6.91-11.15-6.91z" fill="#00af80"/><path class="cls-5" d="M19.36 23a1.5 1.5 0 0 0-.75-2 14.22 14.22 0 0 0-10.52-.87c-8.92 2.96-6.57 11.09-5.57 14.56l.11.38c.61 2.12 4.2 9.55 9.34 13a10.65 10.65 0 0 0 2.93 1.4 7.74 7.74 0 0 0 2.12.3 8.23 8.23 0 0 0 5.59-2.37 1.5 1.5 0 0 0-2-2.21 4.88 4.88 0 0 1-4.87 1.39 9.42 9.42 0 0 1-3.62-2.19 18.87 18.87 0 0 1-1.64-1.7 27.88 27.88 0 0 1-2.14-2.88 24.81 24.81 0 0 1-2.82-5.54l-.11-.39C4.06 29.21 3.33 24.88 9 23a9.77 9.77 0 0 1 3-.49 12.81 12.81 0 0 1 5.36 1.24 1.49 1.49 0 0 0 2-.69zM32.91 33.69a5.36 5.36 0 0 0 .07-1 3.05 3.05 0 0 1 .06-.58c.6-3.07 5.46-8.63 8.6-11.61a1.5 1.5 0 0 0 .06-2.12l-.12-.1h-.07l-.15-.09a1.54 1.54 0 0 0-.92-.21 1.44 1.44 0 0 0-.87.39c-.76.72-6.12 5.87-8.5 10.53S31 29 31 29a11.08 11.08 0 0 1 1.67-6.49 1.49 1.49 0 0 0-1.16-2.37 1.58 1.58 0 0 0-1.31.63 11.21 11.21 0 0 0-1.73 4 17 17 0 0 0-.38 2.38c-.07.8-.1 1.58-.1 2.32v.05a9.17 9.17 0 0 0 1.5 5.1 2 2 0 0 0 1.6.88 1.84 1.84 0 0 0 .53-.08 2 2 0 0 0 1.29-1.73zM27.13 27.68c-.64-1.31-.2-4.43.11-5.74a1.5 1.5 0 1 0-2.92-.7 19.29 19.29 0 0 0-.49 5.17 7.46 7.46 0 0 0 .6 2.67 1.58 1.58 0 0 0 1.34.92 1.64 1.64 0 0 0 .66-.23 1.57 1.57 0 0 0 .69-.75 1.53 1.53 0 0 0 .01-1.34z"/><path d="M45.46 90.74l.37-1 .25-.66.22-.58.23-.56c.08-.18.15-.36.23-.53s.16-.33.24-.49.16-.33.25-.48.18-.29.27-.43.18-.29.27-.42.22-.26.33-.38.19-.23.29-.34a5 5 0 0 1 .44-.36c.09-.07.18-.16.28-.23a4.74 4.74 0 0 1 .85-.45l-1.29-.43-.46-.16-.82-.29-.55-.21-.69-.26-.61-.24L45 82l-.67-.27-.47-.19-.73-.3-.34-.14-.79-.33-.19-.08-.87-.38c-4.74-2.31-9.28-4.64-10.19-5.48s7.33 21 11.54 24.65a1.87 1.87 0 0 0 .89.48 69.5 69.5 0 0 1 2.28-9.22z" fill="#abffad"/></g></svg>