<svg xmlns="http://www.w3.org/2000/svg" viewBox="0 0 100 100"><defs><style>.cls-1{fill:#92cdfa}.cls-2{fill:#4949e7}.cls-3{fill:#ec3a3b}.cls-5{fill:#202095}.cls-6{fill:#b3b3fc}.cls-7{fill:#c12020}.cls-8{fill:#ff8578}.cls-9{fill:#d7d7ff}</style></defs><g id="seleccionados_expandidos" data-name="seleccionados expandidos"><path class="cls-1" d="M16 78.46c-.29-.31-.59-.61-.87-.94a40.85 40.85 0 0 1-3.83-5.24A56.68 56.68 0 0 1 4 50.85a72.56 72.56 0 0 1-.44-3.8A70.53 70.53 0 0 1 0 38v62h14.77A131.06 131.06 0 0 0 16 83.67c.06-1.74 0-3.47 0-5.21zM92.79 47.83c-1.75 8.79-4.49 17.35-10 24.44-.14.17-.29.34-.42.51q-.06 7.77.2 15.54c.12 3.89.3 7.79.5 11.68H100V37.42c-1.42 4.25-3.69 8.11-7.21 10.41zM85.49 0c-.22 0-.44.16-.66 0H14.07c-.19.15-.36 0-.54 0z"/><path class="cls-2" d="M4.52 20.3l-.16.2A1.5 1.5 0 0 1 2 18.6c.06-.07 5.68-7 6.29-13.81A1.5 1.5 0 0 1 10 3.42a1.48 1.48 0 0 1 .71.26 19.13 19.13 0 0 1 2.82-3.2c.18-.16.36-.33.54-.48H0v38a70.53 70.53 0 0 0 3.51 9c-.81-9.07.19-17.85 1.01-26.7z"/><path class="cls-3" d="M64.43 86a52 52 0 0 1-8.18 2.71c.61-.12 1.21-.25 1.78-.39a29 29 0 0 0 6.4-2.32z"/><path class="cls-3" d="M82.35 72.78a44.06 44.06 0 0 1-10.93 9.59 1.49 1.49 0 0 1 0 1.53c-1.92 3.21-6.42 5.82-12.69 7.35A50.32 50.32 0 0 1 47 92.59c-7.46 0-15.81-1.55-22.84-5.88a1.5 1.5 0 0 1-.5-2.05 34.76 34.76 0 0 1-7.66-6.2v5.21A131.06 131.06 0 0 1 14.77 100h68.28c-.2-3.89-.38-7.78-.5-11.68q-.24-7.77-.2-15.54z"/><path d="M92.7 34.48c-.3-5.08-.34-10.17-.35-15.25a32.61 32.61 0 0 0-2.28-5.85 39.59 39.59 0 0 1-3.52-10.13A2 2 0 0 1 87 1.62c-.46-.5-1-.62-1.51-1.62h-72a13.82 13.82 0 0 0-3.17 4A1.2 1.2 0 0 1 11 5.17C10.33 12.35 5.5 19 4.52 20.24 3.7 29.09 2.7 37.9 3.51 47c.11 1.26.25 2.54.44 3.82a56.72 56.72 0 0 0 7.38 21.43 40.88 40.88 0 0 0 3.83 5.25c.28.33.58.63.87.94a34.76 34.76 0 0 0 7.64 6.2 1.5 1.5 0 0 1 2.06-.49c9.66 5.95 22 6.22 30.5 4.57a52 52 0 0 0 8.2-2.72 10.94 10.94 0 0 0 4.42-3.65 1.5 1.5 0 0 1 2.06-.52 1.48 1.48 0 0 1 .51.52 44.06 44.06 0 0 0 10.93-9.59c.14-.17.29-.34.42-.51 5.52-7.08 8.27-15.64 10-24.44v-.24a109.79 109.79 0 0 0-.07-13.09z" fill="#fb5252"/><path class="cls-2" d="M87 1.86a1.49 1.49 0 0 1 2.47.83 36.55 36.55 0 0 0 3.28 9.41C94.44 15.63 96 19 96 24.65a1.5 1.5 0 1 1-3 0 21.29 21.29 0 0 0-.66-5.42c0 5.09.06 10.17.35 15.25a109.79 109.79 0 0 1 .14 13.11v.24c3.52-2.29 5.79-6.16 7.21-10.41V0H84.82c.22.16.45.31.66.48A15.7 15.7 0 0 1 87 1.86z"/><ellipse class="cls-5" cx="27.08" cy="28.92" rx="2.08" ry="2.64"/><ellipse class="cls-5" cx="65.63" cy="28.92" rx="2.08" ry="2.64"/><path class="cls-6" d="M86.55 3.25a39.59 39.59 0 0 0 3.51 10.12 32.61 32.61 0 0 1 2.28 5.85 21.29 21.29 0 0 1 .66 5.43 1.5 1.5 0 1 0 3 0c0-5.68-1.56-9-3.22-12.55a36.55 36.55 0 0 1-3.28-9.41 1.5 1.5 0 0 0-2.95.56zM10.67 3.68a1.48 1.48 0 0 0-.67-.26 1.5 1.5 0 0 0-1.66 1.36C7.72 11.62 2.1 18.53 2 18.6a1.5 1.5 0 0 0 2.36 1.9l.16-.2c1-1.24 6.16-8.07 6.81-15.25a1.49 1.49 0 0 0-.66-1.37z"/><path class="cls-7" d="M62.5 57c-2.9 2.66-16.59 5-22.85 3.28a1.5 1.5 0 1 0-.78 2.9 25 25 0 0 0 6.27.67c7.29 0 16.45-1.94 19.37-4.59a1.5 1.5 0 0 0-2-2.22zM37.2 50.5c1.5 1.32 4 1.87 6.42 1.87s4.36-.49 5.33-1.29a1.5 1.5 0 1 0-1.9-2.32c-.9.73-6 1.13-7.88-.51-.28-.25-.95-.83.2-2.69 4.33-7 4.87-9.43 3.6-16.27a1.5 1.5 0 0 0-2.95.55c1.14 6.12.78 7.71-3.2 14.14-2.24 3.62-.48 5.76.38 6.52z"/><path class="cls-8" d="M49.62 70a42.33 42.33 0 0 0-9.41.23 1.5 1.5 0 0 0 .17 3h.17a39.65 39.65 0 0 1 8.74-.23 1.5 1.5 0 1 0 .33-3z"/><path class="cls-7" d="M70.9 81.84a1.5 1.5 0 0 0-2.06.52A10.94 10.94 0 0 1 64.43 86 29 29 0 0 1 58 88.33c-.57.14-1.17.27-1.78.39-8.46 1.66-20.84 1.38-30.5-4.57a1.5 1.5 0 0 0-2.06.49 1.5 1.5 0 0 0 .5 2.05C31.2 91 39.55 92.59 47 92.59a50.32 50.32 0 0 0 11.73-1.34C65 89.72 69.5 87.11 71.42 83.9a1.52 1.52 0 0 0-.52-2.06z"/><path class="cls-9" d="M52.34 17.26a1.5 1.5 0 0 0 2.1-.28c4.64-6 15-9.14 19.66-7.12a1.5 1.5 0 1 0 1.2-2.75c-5.76-2.5-17.61.72-23.23 8a1.5 1.5 0 0 0 .27 2.15zM17.4 17.5c1.37-3.58 8.06-5.12 10.53-5.4a1.5 1.5 0 0 0-.34-3c-.44.05-10.68 1.3-13 7.31a1.5 1.5 0 1 0 2.8 1.07z"/><path class="cls-8" d="M14.25 41l-.39-.19a1.72 1.72 0 1 0 0 3l.39-.19a1.51 1.51 0 0 0 0-2.62zM19.48 55.13a1.64 1.64 0 0 0 1.72 0l.07-.05A1.94 1.94 0 0 0 22.1 53l-.1-.46a1.75 1.75 0 0 0-3.35 0l-.09.47a1.94 1.94 0 0 0 .84 2.07zM27.06 44.91l.39-.19a1.23 1.23 0 0 0 0-2.11l-.39-.19a1.45 1.45 0 1 0 0 2.5zM60 40.93c-2 0-2 4.14 0 4.14a2.08 2.08 0 1 0 0-4.14zM74.6 52.33a6.67 6.67 0 0 0-.12-1 1.57 1.57 0 0 0-.61-.84 1.12 1.12 0 0 0-1.74 0 1.57 1.57 0 0 0-.61.84 6.67 6.67 0 0 0-.12 1 1.61 1.61 0 0 0 1.6 1.6c.79-.03 1.7-.71 1.6-1.6zM79 42.78a1.78 1.78 0 0 0 0-3.55 1.78 1.78 0 0 0 0 3.55z"/></g></svg>